<?xml version="1.0" encoding="UTF-8" standalone="no"?>
<svg
   xmlns:dc="http://purl.org/dc/elements/1.1/"
   xmlns:cc="http://creativecommons.org/ns#"
   xmlns:rdf="http://www.w3.org/1999/02/22-rdf-syntax-ns#"
   xmlns:svg="http://www.w3.org/2000/svg"
   xmlns="http://www.w3.org/2000/svg"
   xmlns:sodipodi="http://sodipodi.sourceforge.net/DTD/sodipodi-0.dtd"
   xmlns:inkscape="http://www.inkscape.org/namespaces/inkscape"
   viewBox="0 0 857.00398 65.233658"
   version="1.1"
   id="svg3783"
   sodipodi:docname="Black (Screen)3.svg"
   inkscape:version="0.92.4 (5da689c313, 2019-01-14)"
   width="857.00397"
   height="65.233658">
  <metadata
     id="metadata3787">
    <rdf:RDF>
      <cc:Work
         rdf:about="">
        <dc:format>image/svg+xml</dc:format>
        <dc:type
           rdf:resource="http://purl.org/dc/dcmitype/StillImage" />
        <dc:title>자산 3</dc:title>
      </cc:Work>
    </rdf:RDF>
  </metadata>
  <sodipodi:namedview
     pagecolor="#ffffff"
     bordercolor="#666666"
     borderopacity="1"
     objecttolerance="10"
     gridtolerance="10"
     guidetolerance="10"
     inkscape:pageopacity="0"
     inkscape:pageshadow="2"
     inkscape:window-width="1680"
     inkscape:window-height="987"
     id="namedview3785"
     showgrid="false"
     inkscape:zoom="0.72461743"
     inkscape:cx="310.32407"
     inkscape:cy="-117.01065"
     inkscape:window-x="-8"
     inkscape:window-y="-8"
     inkscape:window-maximized="1"
     inkscape:current-layer="svg3783" />
  <defs
     id="defs3753">
    <style
       id="style3751">.cls-1{fill:#0e0e0e;}</style>
  </defs>
  <title
     id="title3755">자산 3</title>
  <g
     id="레이어_2"
     data-name="레이어 2"
     transform="translate(0,0.00354475)">
    <g
       id="레이어_1-2"
       data-name="레이어 1">
      <path
         class="cls-1"
         d="M 226.48,36.38 237.25,0.65 h 10.9 L 231.61,48.16 H 221.39 L 204.91,0.65 h 10.87 z"
         id="path3757"
         inkscape:connector-curvature="0"
         style="fill:#0e0e0e" />
      <path
         class="cls-1"
         d="m 281.21,27.57 h -18.8 V 40.3 h 22.06 v 7.86 H 252.62 V 0.65 h 31.78 v 7.93 h -22 v 11.33 h 18.8 z"
         id="path3759"
         inkscape:connector-curvature="0"
         style="fill:#0e0e0e" />
      <path
         class="cls-1"
         d="m 328.85,48.16 h -9.79 L 300,16.9 v 31.26 h -9.79 V 0.65 H 300 L 319.09,32 V 0.65 h 9.76 z"
         id="path3761"
         inkscape:connector-curvature="0"
         style="fill:#0e0e0e" />
      <path
         class="cls-1"
         d="m 372.22,8.58 h -14.56 v 39.58 h -9.79 V 8.58 H 333.52 V 0.65 h 38.7 z"
         id="path3763"
         inkscape:connector-curvature="0"
         style="fill:#0e0e0e" />
      <path
         class="cls-1"
         d="m 413.76,0.65 v 31.3 q 0,7.8 -4.88,12.33 -4.88,4.53 -13.33,4.54 -8.32,0 -13.22,-4.41 -4.9,-4.41 -5,-12.11 V 0.65 h 9.79 V 32 q 0,4.67 2.24,6.8 a 8.58,8.58 0 0 0 6.19,2.2 q 8.26,0 8.39,-8.68 V 0.65 Z"
         id="path3765"
         inkscape:connector-curvature="0"
         style="fill:#0e0e0e" />
      <path
         class="cls-1"
         d="m 439.38,30.77 h -7.8 v 17.39 h -9.79 V 0.65 h 17.65 q 8.42,0 13,3.75 4.58,3.75 4.56,10.6 a 14.61,14.61 0 0 1 -2.1,8.11 14.35,14.35 0 0 1 -6.38,5.17 L 458.8,47.7 v 0.46 h -10.52 z m -7.8,-7.93 h 7.9 a 8.09,8.09 0 0 0 5.7,-1.84 6.71,6.71 0 0 0 2,-5.17 7.18,7.18 0 0 0 -1.91,-5.29 q -1.91,-1.93 -5.86,-1.92 h -7.87 z"
         id="path3767"
         inkscape:connector-curvature="0"
         style="fill:#0e0e0e" />
      <path
         class="cls-1"
         d="M 493,27.57 H 474.2 V 40.3 h 22.06 v 7.86 H 464.44 V 0.65 h 31.78 v 7.93 h -22 V 19.91 H 493 Z"
         id="path3769"
         inkscape:connector-curvature="0"
         style="fill:#0e0e0e" />
      <path
         class="cls-1"
         d="m 526.67,35.7 a 5,5 0 0 0 -2,-4.26 25.71,25.71 0 0 0 -7,-3.13 49.9,49.9 0 0 1 -8.06,-3.25 q -8.09,-4.37 -8.09,-11.78 A 11.47,11.47 0 0 1 503.69,6.41 14.16,14.16 0 0 1 509.92,1.69 23.45,23.45 0 0 1 519,0 a 21.36,21.36 0 0 1 9.07,1.84 14.45,14.45 0 0 1 6.22,5.16 13.62,13.62 0 0 1 2.2,7.64 h -9.79 a 6.41,6.41 0 0 0 -2.06,-5.07 8.45,8.45 0 0 0 -5.78,-1.81 9,9 0 0 0 -5.58,1.52 4.79,4.79 0 0 0 -2,4 4.58,4.58 0 0 0 2.33,3.88 26.34,26.34 0 0 0 6.87,2.94 q 8.35,2.51 12.17,6.23 a 12.41,12.41 0 0 1 3.82,9.27 11.44,11.44 0 0 1 -4.67,9.68 q -4.67,3.51 -12.56,3.51 a 24.26,24.26 0 0 1 -10,-2 15.8,15.8 0 0 1 -6.87,-5.5 14.08,14.08 0 0 1 -2.37,-8.07 h 9.82 q 0,7.87 9.4,7.87 a 9.15,9.15 0 0 0 5.45,-1.42 4.62,4.62 0 0 0 2,-3.97 z"
         id="path3771"
         inkscape:connector-curvature="0"
         style="fill:#0e0e0e" />
      <path
         class="cls-1"
         d="M 34.27,46.9 A 24.43,24.43 0 0 1 24.45,49 C 7.13,49 0,35.71 0,24.45 0,14.32 7.38,0 24.64,0 38.71,0 49.21,8.94 49.21,23.45 a 25.73,25.73 0 0 1 -11.07,21 L 51,51.09 c 13.69,7.07 23.2,7.38 26.33,7.38 A 35.35,35.35 0 0 0 89.61,56 a 3.91,3.91 0 0 1 0.88,-0.25 0.36,0.36 0 0 1 0.38,0.38 c 0,0.25 -0.12,0.44 -0.5,0.63 a 47.75,47.75 0 0 1 -19.82,4.32 c -7.57,0 -15.63,-2.75 -25.76,-8.38 z M 26,46.65 c 5.63,0 17.26,-3.25 17.26,-21.45 0,-15 -9.13,-23.07 -19,-23.07 C 13.76,2.13 5.94,9 5.94,22.7 5.94,37.27 14.69,46.65 26,46.65 Z"
         id="path3773"
         inkscape:connector-curvature="0"
         style="fill:#0e0e0e" />
      <path
         class="cls-1"
         d="M 61,19 C 61,9.25 61,7.5 60.9,5.5 60.8,3.5 60.28,2.37 58.21,1.94 A 11.7,11.7 0 0 0 56.08,1.75 c -0.25,0 -0.5,-0.12 -0.5,-0.38 0,-0.26 0.31,-0.5 1,-0.5 2.81,0 6.63,0.19 7.19,0.19 0.56,0 4.33,-0.18 6.23,-0.18 0.69,0 1,0.13 1,0.5 0,0.37 -0.25,0.38 -0.5,0.38 a 9.3,9.3 0 0 0 -1.56,0.19 c -1.69,0.25 -2.19,1.38 -2.31,3.56 -0.12,2 -0.12,3.75 -0.12,13.51 v 8.75 c 0,9 2,12.88 4.69,15.45 3.06,2.88 5.88,3.44 9.44,3.44 a 13.14,13.14 0 0 0 9.82,-4.5 C 93.3,38.58 94,33.27 94,26.83 V 19 C 94,9.25 94,7.5 93.92,5.5 93.84,3.5 93.3,2.37 91.23,1.94 A 11.7,11.7 0 0 0 89.1,1.75 c -0.25,0 -0.5,-0.12 -0.5,-0.38 0,-0.26 0.31,-0.5 1,-0.5 2.81,0 6.25,0.19 6.63,0.19 0.38,0 3.38,-0.19 5.25,-0.19 0.69,0 1,0.13 1,0.5 0,0.37 -0.25,0.38 -0.5,0.38 a 9.29,9.29 0 0 0 -1.56,0.19 C 98.73,2.32 98.23,3.32 98.11,5.5 98,7.5 98,9.25 98,19 v 6.7 c 0,6.75 -0.75,14.26 -5.75,18.7 A 18.32,18.32 0 0 1 79.35,49 C 77.22,49 70.91,48.75 66.47,44.56 63.41,41.65 61,37.27 61,28.14 Z"
         id="path3775"
         inkscape:connector-curvature="0"
         style="fill:#0e0e0e" />
      <path
         class="cls-1"
         d="m 124.44,2.44 c 0.75,-2.06 1,-2.44 1.38,-2.44 0.38,0 0.63,0.31 1.38,2.25 0.94,2.38 10.76,28.2 14.57,37.71 2.25,5.57 4.06,6.57 5.38,6.94 a 8.06,8.06 0 0 0 2.5,0.38 c 0.38,0 0.63,0.06 0.63,0.38 0,0.32 -0.56,0.5 -1.25,0.5 -0.94,0 -5.5,0 -9.82,-0.12 -1.19,-0.06 -1.87,-0.06 -1.87,-0.44 0,-0.38 0.19,-0.37 0.44,-0.44 0.25,-0.07 0.75,-0.69 0.38,-1.69 l -5.82,-15.38 a 0.55,0.55 0 0 0 -0.56,-0.37 h -13.47 a 0.66,0.66 0 0 0 -0.62,0.5 l -3.75,11.07 a 13.21,13.21 0 0 0 -0.88,4.19 c 0,1.25 1.31,1.81 2.38,1.81 h 0.63 c 0.44,0 0.63,0.13 0.63,0.38 0,0.25 -0.37,0.5 -0.94,0.5 -1.5,0 -4.19,-0.19 -4.88,-0.19 -0.69,0 -4.13,0.19 -7.07,0.19 -0.81,0 -1.19,-0.12 -1.19,-0.5 0,-0.38 0.25,-0.37 0.56,-0.37 0.31,0 1.31,-0.06 1.81,-0.12 2.88,-0.38 4.13,-2.75 5.25,-5.88 z m 6.5,25 c 0.31,0 0.31,-0.19 0.25,-0.44 l -5.94,-16.88 q -0.47,-1.41 -0.94,0 L 118.81,27 c -0.12,0.31 0,0.44 0.19,0.44 z"
         id="path3777"
         inkscape:connector-curvature="0"
         style="fill:#0e0e0e" />
      <path
         class="cls-1"
         d="m 159.2,19 c 0,-9.75 0,-11.51 -0.13,-13.51 -0.13,-2 -0.62,-3.13 -2.69,-3.56 a 11.7,11.7 0 0 0 -2.13,-0.19 c -0.25,0 -0.5,-0.12 -0.5,-0.38 0,-0.26 0.31,-0.5 1,-0.5 2.81,0 6.75,0.19 7.07,0.19 0.75,0 4.69,-0.19 8.44,-0.19 6.2,0.02 17.64,-0.55 25.09,7.14 a 22.34,22.34 0 0 1 6.07,15.88 25.56,25.56 0 0 1 -6.75,17.63 c -2.69,2.81 -8.32,7.19 -18.95,7.19 -2.69,0 -6,-0.19 -8.69,-0.37 -2.69,-0.18 -4.88,-0.37 -5.19,-0.37 -0.12,0 -1.19,0 -2.5,0.06 -1.31,0.06 -2.69,0.13 -3.63,0.13 -0.69,0 -1,-0.12 -1,-0.5 0,-0.19 0.13,-0.37 0.5,-0.37 a 9.67,9.67 0 0 0 1.88,-0.25 c 1.25,-0.25 1.56,-1.63 1.81,-3.44 0.31,-2.63 0.31,-7.57 0.31,-13.57 z m 5.25,6.75 c 0,6.63 0.06,12.38 0.13,13.57 0.06,1.56 0.19,4.06 0.69,4.75 0.81,1.19 3.25,2.5 10.63,2.5 a 21,21 0 0 0 14.88,-5.82 c 3.25,-3.19 5,-9.19 5,-14.94 a 22.37,22.37 0 0 0 -6,-15.76 C 183.9,3.88 176.77,3 169.33,3 a 16.67,16.67 0 0 0 -4.06,0.44 1.13,1.13 0 0 0 -0.75,1.25 c -0.06,2.13 -0.06,8.5 -0.06,13.32 z"
         id="path3779"
         inkscape:connector-curvature="0"
         style="fill:#0e0e0e" />
    </g>
  </g>
  <rect
     id="rect3789"
     width="314.6488"
     height="63.481773"
     x="542.35516"
     y="1.7518868"
     style="fill:none" />
</svg>
